<svg id="9322da28-6fb7-4207-81fc-51662ef7f0ba" data-name="Layer 1" xmlns="http://www.w3.org/2000/svg" viewBox="0 0 83 56.15"><title>icon-update</title><path d="M74.83,35.63a16.27,16.27,0,0,0-3.54.39,21,21,0,0,0-40.91.46,16.48,16.48,0,0,0-5.21-.85,16.67,16.67,0,0,0,0,33.34h17.7V66H25.17a13.67,13.67,0,1,1,5.75-26l1.87.87.25-2a18,18,0,0,1,35.61-.62l.27,1.74,1.68-.55A13.66,13.66,0,1,1,74.84,66H56.59v3H74.84a16.67,16.67,0,1,0,0-33.33Z" transform="translate(-8.5 -19.93)"/><polygon points="41.5 23.1 28.78 42.13 37.5 42.13 37.5 56.15 45.5 56.15 45.5 42.13 54.22 42.13 41.5 23.1"/></svg>