<svg id="371efd16-7bda-449a-b651-c7d6cb8bcfea" data-name="Layer 1" xmlns="http://www.w3.org/2000/svg" viewBox="0 0 25 28"><title>icon-distance</title><path d="M19,7a11.76,11.76,0,0,0-1.21.07C17.06,3.15,14.33,1,10,1,4.84,1,2,4,2,9.37c0,5.86,7,13,7.29,13.33A1,1,0,0,0,10,23h0a1,1,0,0,0,.71-.3s.78-.8,1.78-2a35.72,35.72,0,0,0,5.8,8,1,1,0,0,0,1.42,0C20,28.4,27,21.23,27,15.37,27,10,24.16,7,19,7Zm-9,6a4,4,0,1,1,4-4A4,4,0,0,1,10,13Zm9,6a4,4,0,1,1,4-4A4,4,0,0,1,19,19Z" transform="translate(-2 -1)"/></svg>