<?xml version="1.0" encoding="utf-8"?>
<!-- Generator: Adobe Illustrator 22.1.0, SVG Export Plug-In . SVG Version: 6.00 Build 0)  -->
<svg version="1.1" id="Layer_1" xmlns="http://www.w3.org/2000/svg" xmlns:xlink="http://www.w3.org/1999/xlink" x="0px" y="0px"
	 viewBox="0 0 138 228.3" style="enable-background:new 0 0 138 228.3;" xml:space="preserve">
<g>
	<ellipse cx="50.5" cy="24.9" rx="22.5" ry="22.5"/>
	<path d="M16.8,112.8c2.4,1.4,5.2,2.5,8.2,3.6v10.9v86c0,6.8,5.5,12.4,12.4,12.4c6.8,0,12.4-5.5,12.4-12.4V135h4.6v78.3
		c0,6.8,5.5,12.4,12.4,12.4c6.8,0,12.4-5.5,12.4-12.4v-86v-18.9V66.7c4-0.5,9.1-1.5,14.5-3.5c5.6-2,11.5-5.1,16.3-10.3
		c4.8-5.1,8.2-12.6,8.1-21.4c0-1.5-0.1-3-0.3-4.6c4.8-0.8,9.7-1.7,11.7-2c0.1,0,0.3,0,0.4,0l3.7-0.6c1.6-0.3,2.6-1.7,2.3-3.3
		L132.9,4c-0.3-1.6-1.7-2.6-3.3-2.3l-3.7,0.6c-0.1,0-0.3,0.1-0.4,0.1c-4,0.7-19.8,3.4-23.3,4.1c-4,0.7-12.8,9.1-15.9,10.2
		c-3,1-5,0.9-5.6,1c-0.1-0.2-0.3-0.3-0.6-0.3L78,17.7c-0.3,0-0.4,0.2-0.5,0.5l-0.7,0.1c-0.3,0.1-0.5,0.4-0.5,0.7l1.2,6.8
		c0.1,0.3,0.3,0.5,0.7,0.5l0.7-0.1c0.1,0.2,0.4,0.3,0.6,0.3l1.9-0.3c0.2,0,0.4-0.2,0.5-0.4c0.7-0.2,2.5-0.9,5.6-1
		c2.5,0,9.2,2.7,14.2,3.8c0.1,1.1,0.2,2,0.2,2.9c-0.1,5-1.5,7.9-3.9,10.5c-3.5,3.9-10.1,6.6-16,7.9c-2.9,0.7-5.6,1-7.6,1.2
		c-0.9,0.1-1.6,0.1-2.1,0.1c-0.4-0.1-0.7-0.1-1.1-0.1H32.7c-1.2,0-2.3,0.3-3.3,0.7c-0.7,0.3-1.3,0.6-1.9,1.1l0,0
		c-0.2,0.2-5.9,4.7-11.8,11.5c-2.9,3.4-6,7.4-8.4,11.8C4.9,80.8,3,85.8,3,91.5c0,3.2,0.7,6.5,2.2,9.6
		C7.4,105.9,11.5,109.8,16.8,112.8z M21.4,83.9c1-1.8,2.2-3.7,3.6-5.5V99c-1.2-0.7-2.2-1.3-2.9-1.9c-1.4-1.1-2-2.1-2.4-2.9
		c-0.4-0.8-0.6-1.6-0.6-2.7C19,89.7,19.8,86.9,21.4,83.9z"/>
</g>
</svg>
