<?xml version="1.0" encoding="utf-8"?>
<!-- Generator: Adobe Illustrator 22.1.0, SVG Export Plug-In . SVG Version: 6.00 Build 0)  -->
<svg version="1.1" id="Layer_1" xmlns="http://www.w3.org/2000/svg" xmlns:xlink="http://www.w3.org/1999/xlink" x="0px" y="0px"
	 viewBox="0 0 15.3 16.3" style="enable-background:new 0 0 15.3 16.3;" xml:space="preserve">
<g>
	<ellipse cx="6.5" cy="1.6" rx="1.3" ry="1.4"/>
	<polygon points="12.9,6.9 12.2,7.4 13,7.5 13.2,11.3 14.9,10.1 	"/>
	<path d="M10.6,7.8c0.1-0.9,1.1-1,1.1,0H10.6z M4.4,8.8L3.8,8.7c0-0.2-0.3-1-0.4-1.3c0.6-2,1.2-1.6,1.9-2l0,3.3
		c-0.1,3-0.5,3.8-1.6,6.6l0.9,0.5c1.5-3,1.8-3.4,2.1-5.6C8,12,7.6,13,7.8,15.9h1c0.2-4,0.1-4.5-1.1-7.4l0-2.1
		c0.5,0.8,1.9,0.6,2.7,1.1c0,0.1-0.1,0.2-0.1,0.3H9.6l-0.2,5.4l3.6,0.1l-0.3-5.5h-0.7C11.8,6.7,9.8,6.4,9,6C8.6,5.5,7.7,4.5,7.1,3.8
		C5.8,2.1,3,5.7,2.8,7.6C2.5,7.7,2.3,8.1,2.2,8.3L1.4,8.1l-1.2,5l3.5,0.7C3.7,13.8,4.4,8.8,4.4,8.8z M3.6,8.6L2.4,8.3
		C3,7.5,3.5,7.9,3.6,8.6z"/>
</g>
</svg>
