<?xml version="1.0" encoding="utf-8"?>
<!-- Generator: Adobe Illustrator 22.1.0, SVG Export Plug-In . SVG Version: 6.00 Build 0)  -->
<svg version="1.1" id="Layer_1" xmlns="http://www.w3.org/2000/svg" xmlns:xlink="http://www.w3.org/1999/xlink" x="0px" y="0px"
	 viewBox="0 0 512 512" style="enable-background:new 0 0 512 512;" xml:space="preserve">
<title>a2</title>
<path d="M448.2,138L374,63.8c-3.9-3.9-10.2-3.9-14.1,0L297,126.6L102,321.2c-1.4,1.2-2.4,2.7-3,4.4L61.4,437.9
	c-1.8,5.2,1.1,10.9,6.3,12.7c2.1,0.7,4.3,0.7,6.3,0L186.4,413c1.7-0.6,3.2-1.6,4.4-3l194.6-195l62.8-63
	C452.1,148.2,452.1,141.9,448.2,138z M86.7,425.3l26.1-78l51.9,51.9L86.7,425.3z M183.2,389.3l-60.5-60.5l181.4-181l60.1,60.2
	L183.2,389.3z M378.3,193.9l-60.1-60.2L366.9,85l60,60L378.3,193.9z"/>
</svg>
