<?xml version="1.0" encoding="utf-8"?>
<!-- Generator: Adobe Illustrator 22.1.0, SVG Export Plug-In . SVG Version: 6.00 Build 0)  -->
<svg version="1.1" id="Layer_1" xmlns="http://www.w3.org/2000/svg" xmlns:xlink="http://www.w3.org/1999/xlink" x="0px" y="0px"
	 viewBox="0 0 58.2 85.5" style="enable-background:new 0 0 58.2 85.5;" xml:space="preserve">
<path d="M44,9.6c0,4.7-3.8,8.4-8.4,8.4s-8.4-3.8-8.4-8.4s3.8-8.4,8.4-8.4S44,5,44,9.6z M22.7,20.4c0.5-1.7-0.6-4-2.8-4.1
	c-1.2,0-3.7-0.1-5.6-0.1s-3.6,0.3-4.1,2l-8,22.1c-0.5,1.7,0.4,3.5,2.1,4l6.1,2.5c1.7,0.6,3.6-0.3,4.1-2L22.7,20.4z M55.2,39.8
	l-0.8-0.4V28.6h-3v9.3l-6.6-3.1l-8.2-11.4c-1.3-2.6-3.7-4.6-7.6-4c-3.6,0.5-4.9,4.5-5.8,8.9L20.8,40l0,0l0,0l-2,9.1
	c-0.1,0.4-0.1,0.7-0.1,1l-2.1,10.4L4.2,76c-1.4,1.7-1.1,4.3,0.7,5.6c0.7,0.6,1.5,0.8,2.4,0.9c1.2,0,2.4-0.5,3.2-1.5l12.8-16.3
	c0.4-0.5,0.6-1,0.8-1.6l2-9.2l7.7,10.2l0.8,16c0.1,2.1,1.8,3.8,3.9,3.8c0.1,0,0.2,0,0.3,0c2.2-0.1,3.9-2,3.8-4.2l-0.9-17.3
	c0-0.8-0.3-1.6-0.8-2.2l-7.3-9.7l3.4-16.1l3.2,4.5c0.3,0.4,0.7,0.7,1.1,1l9.9,4.7v38.1h3V45.4c0.9-0.1,1.8-0.7,2.2-1.7
	C57.2,42.3,56.7,40.5,55.2,39.8z"/>
</svg>
