<svg id="6cf0c1b2-8b17-4f30-b95a-a720bd914795" data-name="Layer 1" xmlns="http://www.w3.org/2000/svg" viewBox="0 0 57.95 90.03"><title>icon-cost</title><path d="M73,51.49q-4-3.1-12.06-5.12l-3.64-.79V27.11a12.38,12.38,0,0,1,5.65,9.75H77q-.36-11-8.22-16.81a28,28,0,0,0-11.5-5V5H43v9.69q-8.6,1.2-13.67,5.74a20.2,20.2,0,0,0-6.94,15.72q0,10.24,7.13,15.18C31.64,52.85,40.3,55.43,43,56.2v19A11,11,0,0,1,37.89,72,12.83,12.83,0,0,1,35.14,65H21.25q0,10.78,7.86,17A29.92,29.92,0,0,0,43,87.56V95H57.28V87.78q9.11-1.34,14.61-5.94A20.5,20.5,0,0,0,79.2,65.75Q79.2,56.42,73,51.49ZM39.35,40.7A6,6,0,0,1,35.88,35a7.09,7.09,0,0,1,3.47-6.4A17,17,0,0,1,43,27.05V42.11A18.46,18.46,0,0,1,39.35,40.7ZM58.91,75.07a8.33,8.33,0,0,1-1.63.45v-16a23.9,23.9,0,0,1,4.73,2A6.22,6.22,0,0,1,65.12,67Q65.12,72.88,58.91,75.07Z" transform="translate(-21.25 -4.98)"/></svg>