<svg id="a5c2f06f-04b2-476e-8d5c-3a82e6476ddb" data-name="Layer 1" xmlns="http://www.w3.org/2000/svg" viewBox="0 0 71.21 90.02"><title>icon-visits</title><path d="M22.5,56.8,44,47.5a22.07,22.07,0,0,1-.5-8.7,60.77,60.77,0,0,0,.7-16.5c-.6-5.5-2.7-11.1-7-14.5A12.67,12.67,0,0,0,29.1,5c-4.9.2-8.9,3.9-11.3,8.2C14.1,19.7,14,29.6,14.9,35a66.4,66.4,0,0,0,5.4,17.1C21,53.6,21.7,55.2,22.5,56.8Z" transform="translate(-14.43 -4.99)"/><path d="M25.2,61.7a34.47,34.47,0,0,0,2,3.2c2.6,3.9,5,7.1,8.1,8.6s8.4.7,10.5-1.7c2.9-3.2,2.3-7.4,1.6-11.2-.6-2.9-1.2-5.1-1.9-7.6Z" transform="translate(-14.43 -4.99)"/><path d="M79,76.6l-21.9-8a21.15,21.15,0,0,0,0-8.7,65.17,65.17,0,0,1-1.7-16.5c.3-5.5,2.1-11.2,6.2-14.9a12.46,12.46,0,0,1,7.9-3.3c4.9,0,9.1,3.4,11.8,7.5,4.1,6.3,4.8,16.1,4.1,21.6A67.4,67.4,0,0,1,81,71.7C80.4,73.4,79.7,75,79,76.6Z" transform="translate(-14.43 -4.99)"/><path d="M76.7,81.6l-1.8,3.3c-2.4,4-4.5,7.4-7.6,9.1S59,95.2,56.7,92.9c-3.1-3-2.8-7.2-2.3-11.1a75.16,75.16,0,0,1,1.5-7.7Z" transform="translate(-14.43 -4.99)"/></svg>