<?xml version="1.0" encoding="utf-8"?>
<!-- Generator: Adobe Illustrator 22.1.0, SVG Export Plug-In . SVG Version: 6.00 Build 0)  -->
<svg version="1.1"
	 id="Layer_1" xmlns:cc="http://creativecommons.org/ns#" xmlns:dc="http://purl.org/dc/elements/1.1/" xmlns:inkscape="http://www.inkscape.org/namespaces/inkscape" xmlns:rdf="http://www.w3.org/1999/02/22-rdf-syntax-ns#" xmlns:sodipodi="http://sodipodi.sourceforge.net/DTD/sodipodi-0.dtd" xmlns:svg="http://www.w3.org/2000/svg"
	 xmlns="http://www.w3.org/2000/svg" xmlns:xlink="http://www.w3.org/1999/xlink" x="0px" y="0px" viewBox="0 0 60.9 77.3"
	 style="enable-background:new 0 0 60.9 77.3;" xml:space="preserve">
<path d="M32,44.2c-0.7,0-1.3,0.6-1.3,1.3c0,9.5,0,18.9,0,28.4c0,0.7,0.6,1.3,1.3,1.3h4.3c0.7,0,1.3-0.6,1.3-1.3c0-9.5,0-18.9,0-28.4
	c0-0.7-0.6-1.3-1.3-1.3H32z M23.4,44.4c-0.7,0-1.3,0.6-1.3,1.3c0,9.5,0,18.9,0,28.4c0,0.7,0.6,1.3,1.3,1.3h4.3
	c0.7,0,1.3-0.6,1.3-1.3c0-9.5,0-18.9,0-28.4c0-0.7-0.6-1.3-1.3-1.3H23.4z"/>
<path d="M23,15.6c-1,0-1.7,0.7-1.7,1.7v26.7c0,1,0.8,1.7,1.7,1.7h13.8c1,0,1.7-0.8,1.7-1.7V17.3c0-1-0.8-1.7-1.7-1.7h-3.7l-2.8,14.9
	l-4-14.9H23z"/>
<path d="M29.9,1.8c-3.6,0-6.4,2.9-6.4,6.4c0,3.6,2.9,6.4,6.4,6.4s6.5-2.9,6.5-6.4C36.3,4.7,33.4,1.8,29.9,1.8z M29.8,10.3
	c0.6,0,1.2,0.7,1.2,1.5c0,0.8-0.5,1.5-1.2,1.5s-1.2-0.7-1.2-1.5C28.6,11,29.1,10.3,29.8,10.3z"/>
<path d="M3.3,6.1c-0.4,0-0.8,0.2-1,0.6L1.3,8.1C0.9,8.7,1.1,9.5,1.7,9.9l0.7,0.4l2.3-3.6L4,6.3C3.8,6.1,3.5,6.1,3.3,6.1z M5.4,7.1
	l-2.3,3.6L5.2,12l5.7,3.5c0.4,0.3,0.6,0.3,0.9,0.5l10.4,3.9c0.7,0.3,1.4-0.1,1.6-0.8l0.6-1.6c0.3-0.7-0.1-1.4-0.8-1.7l-10.3-3.8
	c0,0-0.1,0-0.1,0l-0.1,0L5.4,7.1z"/>
<path d="M37.4,15.8c-0.4,0-0.8,0.2-1,0.6l-0.9,1.4c-0.4,0.6-0.2,1.4,0.4,1.8l9.7,6c0.4,0.2,0.6,0.4,1.1,0.5l9.7,1.9l0.8-4.2L47.9,22
	l0,0l-9.7-6C37.9,15.9,37.7,15.8,37.4,15.8z M58,24l-0.8,4.2l0.4,0.1c0.7,0.1,1.4-0.3,1.5-1l0.3-1.7c0.1-0.7-0.3-1.4-1-1.5L58,24z"
	/>
<path d="M27,14.8c-0.3,1,0.2,2.3,0.1,3.3l1.7-0.7l0.2-2l-0.1-0.1C28.9,15.3,27,14.8,27,14.8z"/>
<path d="M32.7,14.9c-0.6,0-1.2,0.2-2.1,0.7l-0.2,1.8c0.7,0.6,1.2,0.9,1.7,1C32.7,17.2,33,16.1,32.7,14.9z"/>
<path d="M29.4,15.3l0.9,0.1L30,17.6l-0.9-0.1L29.4,15.3z"/>
</svg>
