<svg id="57beacf3-c349-4726-b765-c95ec3818e63" data-name="Layer 1" xmlns="http://www.w3.org/2000/svg" viewBox="0 0 86 88"><title>icon-rating</title><path d="M50.06,6a2.21,2.21,0,0,0-2.17,1.49L38.81,33.75l-29.6,0a2.21,2.21,0,0,0-1.24,4L31.82,53.9,22.67,80A2.21,2.21,0,0,0,26,82.57L50,66.23,74,82.57A2.21,2.21,0,0,0,77,82a2.24,2.24,0,0,0,.26-2l-9.15-26.1L92,37.75a2.21,2.21,0,0,0-1.24-4l-29.64,0L52.07,7.49A2.23,2.23,0,0,0,50.06,6Z" transform="translate(-7 -6)"/><path d="M79.25,13.06a2.22,2.22,0,0,0-1.72.74L64.92,27.46a2.21,2.21,0,0,0,3.19,3.06l.06-.07L80.78,16.79a2.21,2.21,0,0,0-1.53-3.73Z" transform="translate(-7 -6)"/><path d="M21.42,13.38a2.21,2.21,0,0,0-1.7,3.72L32.25,30.76a2.21,2.21,0,1,0,3.33-2.91.46.46,0,0,0-.07-.07L23,14.11A2.21,2.21,0,0,0,21.42,13.38Z" transform="translate(-7 -6)"/><path d="M75.4,55a2.21,2.21,0,0,0-1.71,3.72L86.18,72.33a2.21,2.21,0,0,0,3.33-2.91l-.06-.07L77,55.69A2.22,2.22,0,0,0,75.4,55Z" transform="translate(-7 -6)"/><path d="M24.62,56.63a2.25,2.25,0,0,0-1.72.73L10.25,71A2.21,2.21,0,1,0,13.44,74l.05-.05L26.14,60.37a2.21,2.21,0,0,0-.07-3.13A2.24,2.24,0,0,0,24.62,56.63Z" transform="translate(-7 -6)"/><path d="M50.61,70.87a2.2,2.2,0,0,0-2.17,2.24V91.74a2.21,2.21,0,1,0,4.42.1V73.11a2.22,2.22,0,0,0-2.18-2.24Z" transform="translate(-7 -6)"/></svg>