<?xml version="1.0" encoding="utf-8"?>
<!-- Generator: Adobe Illustrator 22.1.0, SVG Export Plug-In . SVG Version: 6.00 Build 0)  -->
<svg version="1.1" id="Layer_1" xmlns="http://www.w3.org/2000/svg" xmlns:xlink="http://www.w3.org/1999/xlink" x="0px" y="0px"
	 viewBox="0 0 135 243" style="enable-background:new 0 0 135 243;" xml:space="preserve">
<g>
	<circle cx="82.3" cy="25.5" r="22.5"/>
	<path d="M3.8,75.5l7.6-6.1c2.4,6.4,5.1,11.2,8.6,14.8c3.4,3.7,8.3,6,12.9,6c0.1,0,0.2,0,0.2,0c5.3,0,9.5-2.3,13-4.7
		c3.4-2.4,6.4-5.3,9.1-7.9v150.1c0,6.8,5.5,12.4,12.4,12.4c6.8,0,12.4-5.5,12.4-12.4v-90.3h4.6v90.3c0,6.8,5.5,12.4,12.4,12.4
		c6.8,0,12.4-5.5,12.4-12.4V77.8c0.6,1.2,1.2,2.6,1.8,4.2c2.8,7.8,5.2,20.6,5.2,40.6c0,5.5-0.2,11.6-0.6,18.2
		c-0.3,4.4,3.1,8.2,7.5,8.5c0.2,0,0.3,0,0.5,0c4.2,0,7.7-3.3,8-7.5c0.4-6.9,0.6-13.3,0.6-19.2c0-30.2-4.9-46.9-11.4-56.9
		c-3.3-5-7.1-8.2-10.7-10c-3.5-1.8-6.7-2.1-8.4-2.1c-0.6,0-1.1,0-1.4,0.1c0,0,0,0,0,0H64.2c-0.3,0-0.6-0.1-1-0.1
		c-2.8,0-5,0.9-6.8,1.9c-3.1,1.7-5.3,3.8-7.6,6c-3.4,3.3-6.8,6.9-9.8,9.4c-1.5,1.2-2.9,2.2-4,2.7c-1.1,0.5-1.7,0.6-1.9,0.6
		c-0.2-0.1-0.3,0.2-1.7-1.1c-1.3-1.3-3.3-4.4-5.3-9.7c-0.6-1.5-1.6-2.8-2.8-3.6l5.8-4.7c1.9,1.6,4.7,1.7,6.7,0.1
		c2-1.6,2.5-4.3,1.4-6.5l1.6-1.3c1.9,1.6,4.7,1.7,6.7,0.1c2-1.6,2.5-4.3,1.4-6.5l1.6-1.3c1.9,1.6,4.7,1.7,6.7,0.1
		c2.3-1.8,2.6-5.1,0.8-7.4c-1.8-2.3-5.1-2.6-7.4-0.8c-2,1.6-2.5,4.3-1.4,6.5l-1.6,1.3c-1.9-1.6-4.7-1.7-6.7-0.1
		c-2,1.6-2.5,4.3-1.4,6.5L36,47.1c-1.9-1.6-4.7-1.7-6.7-0.1c-2,1.6-2.5,4.3-1.4,6.5l-6.5,5.2c-1.7-0.6-3.7-0.7-5.5,0
		c-3.5,1.3-5.6,4.9-5.1,8.5l-8.3,6.6L3.8,75.5z"/>
</g>
</svg>
