<svg id="80597999-f2e3-426b-88f3-2f86c5d5f4cd" data-name="Layer 1" xmlns="http://www.w3.org/2000/svg" viewBox="0 0 55 70"><title>icon-delete</title><path d="M69.5,33.9l-1.83,44A1.71,1.71,0,0,1,66,79.5H34a1.71,1.71,0,0,1-1.67-1.59l-1.83-44a2.5,2.5,0,1,0-5,.2l1.84,44A6.7,6.7,0,0,0,34,84.5H66a6.7,6.7,0,0,0,6.66-6.39l1.84-44a2.5,2.5,0,0,0-5-.2Z" transform="translate(-22.5 -14.5)"/><path d="M48,38V72a2,2,0,0,0,4,0V38a2,2,0,0,0-4,0Z" transform="translate(-22.5 -14.5)"/><path d="M37,38.06l1,34a2,2,0,0,0,4-.12l-1-34a2,2,0,1,0-4,.12Z" transform="translate(-22.5 -14.5)"/><path d="M59,37.94l-1,34a2,2,0,1,0,4,.12l1-34a2,2,0,0,0-4-.12Z" transform="translate(-22.5 -14.5)"/><path d="M25,28H75a2.5,2.5,0,0,0,0-5H25a2.5,2.5,0,0,0,0,5Z" transform="translate(-22.5 -14.5)"/><path d="M42.4,24.69l1-3.65a2.44,2.44,0,0,1,2.05-1.54h9A2.44,2.44,0,0,1,56.56,21l1,3.65,4.8-1.38-1-3.64a7.38,7.38,0,0,0-6.85-5.17h-9a7.38,7.38,0,0,0-6.85,5.17l-1,3.64Z" transform="translate(-22.5 -14.5)"/></svg>