<?xml version="1.0" encoding="utf-8"?>
<!-- Generator: Adobe Illustrator 22.1.0, SVG Export Plug-In . SVG Version: 6.00 Build 0)  -->
<svg version="1.1" id="Layer_1" xmlns="http://www.w3.org/2000/svg" xmlns:xlink="http://www.w3.org/1999/xlink" x="0px" y="0px"
	 viewBox="0 0 91.5 78" style="enable-background:new 0 0 91.5 78;" xml:space="preserve">
<g>
	<circle cx="68.8" cy="7.8" r="7"/>
	<path d="M90,70.8c-0.6-0.9-1.8-1.3-2.7-0.7l-4.6,2.7h-5L84.4,31l0,0c1.5-0.8,2-2.6,1.2-4.1c-0.8-1.5-2.6-2-4.1-1.2l-8.7,4.7
		l-2.9-9.3c-0.2-0.8-0.8-1.4-1.5-1.8l-10.3-5.2c-0.2-0.1-0.4-0.2-0.6-0.2L45.3,11c-1.4-0.3-2.8,0.3-3.4,1.6l-6.3,12.9L1.3,39.8
		l0.8,1.8l33.3-14c0.2,0.8,0.8,1.4,1.5,1.8c1.5,0.7,3.3,0.1,4-1.4l5.2-10.8l7.2,1.7l-11,17.6l0,0c-0.1,0.2-0.2,0.3-0.3,0.5l-6.1,14
		l-11.2,8.4c-1.6,1.2-2,3.5-1,5.2H12.3c-1.1,0-2,0.9-2,2c0,1.1,0.9,2,2,2h39.1c-0.4,1.5,0.1,3,1.2,4H29.3c-1.1,0-2,0.9-2,2
		c0,1.1,0.9,2,2,2h54c0.4,0,0.7-0.1,1-0.3l5-3C90.2,72.9,90.5,71.7,90,70.8z M41.7,57c0.6-0.4,1-1,1.3-1.6l4.2-9.7l8.6,8.3
		l-3.2,10.8H31.3L41.7,57z M59.1,70.9l0.6-2.1h6.5c0.4,0,0.7-0.1,1-0.3l5-3c0.9-0.6,1.3-1.8,0.7-2.7s-1.8-1.3-2.7-0.7l-4.5,2.7h-4.8
		l3.2-10.9c0.4-1.4,0-3-1.1-4l-10-9.6l12.2-13.8l2.9,9.2c0.3,0.9,0.9,1.6,1.7,1.9c0.4,0.1,0.7,0.2,1.1,0.2c0.5,0,1-0.1,1.4-0.4
		l9.8-5.3l-6.4,40.7H57.9C58.4,72.3,58.9,71.7,59.1,70.9z"/>
</g>
</svg>
